{
  "accessors": [
    {
      "bufferView": 2,
      "componentType": 5126,
      "count": 10722,
      "max": [
        0.9031190276145935,
        0.9031190276145935,
        0.0989070013165474
      ],
      "min": [
        -0.9031190276145935,
        -0.9031190276145935,
        -0.17831499874591827
      ],
      "type": "VEC3"
    },
    {
      "bufferView": 2,
      "byteOffset": 128664,
      "componentType": 5126,
      "count": 10722,
      "max": [
        0.9951865673065186,
        0.9986663460731506,
        1.0
      ],
      "min": [
        -0.9952157735824585,
        -0.9986663460731506,
        -0.9989990592002869
      ],
      "type": "VEC3"
    },
    {
      "bufferView": 1,
      "componentType": 5126,
      "count": 10722,
      "max": [
        0.7637879848480225,
        0.9241369962692261
      ],
      "min": [
        0.3897869884967804,
        0.18302999436855316
      ],
      "type": "VEC2"
    },
    {
      "bufferView": 0,
      "componentType": 5125,
      "count": 16200,
      "type": "SCALAR"
    }
  ],
  "asset": {
    "extras": {
      "author": "Gabriel.Olivera (https://sketchfab.com/Gabriel.Olivera)",
      "license": "CC-BY-4.0 (http://creativecommons.org/licenses/by/4.0/)",
      "source": "https://sketchfab.com/3d-models/volante-fiat-steering-wheel-778c6cce5d47420da251e049426fc5e2",
      "title": "Volante FIAT / Steering Wheel"
    },
    "generator": "Sketchfab-14.38.0",
    "version": "2.0"
  },
  "bufferViews": [
    {
      "buffer": 0,
      "byteLength": 64800,
      "name": "floatBufferViews",
      "target": 34963
    },
    {
      "buffer": 0,
      "byteLength": 85776,
      "byteOffset": 64800,
      "byteStride": 8,
      "name": "floatBufferViews",
      "target": 34962
    },
    {
      "buffer": 0,
      "byteLength": 257328,
      "byteOffset": 150576,
      "byteStride": 12,
      "name": "floatBufferViews",
      "target": 34962
    }
  ],
  "buffers": [
    {
      "byteLength": 407904,
      "uri": "scene.bin"
    }
  ],
  "images": [
    {
      "uri": "textures/VolanteFIAT_baseColor.jpeg"
    }
  ],
  "materials": [
    {
      "doubleSided": true,
      "name": "VolanteFIAT",
      "pbrMetallicRoughness": {
        "baseColorTexture": {
          "index": 0
        },
        "metallicFactor": 0.0,
        "roughnessFactor": 0.8011823178082373
      }
    }
  ],
  "meshes": [
    {
      "name": "Object_0",
      "primitives": [
        {
          "attributes": {
            "NORMAL": 1,
            "POSITION": 0,
            "TEXCOORD_0": 2
          },
          "indices": 3,
          "material": 0,
          "mode": 4
        }
      ]
    }
  ],
  "nodes": [
    {
      "children": [
        1
      ],
      "matrix": [
        1.0,
        0.0,
        0.0,
        0.0,
        0.0,
        0.9999920129776001,
        0.003993355203420146,
        0.0,
        0.0,
        -0.003993355203420146,
        0.9999920129776001,
        0.0,
        0.0,
        0.0,
        0.0,
        1.0
      ],
      "name": "Sketchfab_model"
    },
    {
      "children": [
        2
      ],
      "name": "Volante.obj.cleaner.materialmerger.gles"
    },
    {
      "mesh": 0,
      "name": "Object_2"
    }
  ],
  "samplers": [
    {
      "magFilter": 9729,
      "minFilter": 9987,
      "wrapS": 10497,
      "wrapT": 10497
    }
  ],
  "scene": 0,
  "scenes": [
    {
      "name": "Sketchfab_Scene",
      "nodes": [
        0
      ]
    }
  ],
  "textures": [
    {
      "sampler": 0,
      "source": 0
    }
  ]
}
